<svg xmlns="http://www.w3.org/2000/svg"><defs><symbol xmlns="http://www.w3.org/2000/svg" id="logo"><path d="M56.3 30.5h3.5l1.3-3.8H68l1.3 3.8h3.6l-6.2-17.9h-4.2l-6.2 17.9Zm5.7-6.7 2.5-7.5 2.5 7.5h-5ZM74.5 30.5h3.1V12.3h-3.1v18.2ZM86.8 30.8c1.3 0 2.5-.3 3.5-.9 1-.6 1.7-1.4 2.1-2.3l-2.5-1.2c-.3.5-.7.9-1.2 1.2-.5.3-1.1.5-1.8.5-.9 0-1.7-.3-2.4-.9-.7-.6-1-1.3-1.1-2.3h9.4c.1-.2.1-.4.1-.6v-.7c0-1.2-.2-2.2-.7-3.2-.5-1-1.2-1.7-2.2-2.3-.9-.6-2.1-.9-3.5-.9-1.2 0-2.3.3-3.3.9-1 .6-1.8 1.4-2.3 2.4-.6 1-.8 2.2-.8 3.5 0 1.3.3 2.4.8 3.5.6 1 1.3 1.9 2.4 2.5 1 .5 2.1.8 3.5.8Zm-.3-11.1c.8 0 1.5.3 2.1.8.6.5.9 1.1.9 1.9h-6.1c.2-.9.5-1.5 1.1-2 .6-.4 1.3-.7 2-.7ZM93.9 30.5h3.7l2.7-4.1 2.7 4.1h3.7l-4.5-6.6 4.6-6.5h-3.7l-2.7 4.1-2.8-4.1h-3.7l4.6 6.5-4.6 6.6ZM109.9 30.5h3.2v-3.4h-3.2v3.4ZM20 .5c-11 0-20 9-20 20s9 20 20 20 20-9 20-20-9-20-20-20ZM11.8 28c-2.2 0-4-1.8-4-4s1.8-4 4-4 4 1.8 4 4-1.8 4-4 4Zm16.7-1.1c-1.8 1.1-4.2.4-5.3-1.4l-5.6-9.7c-1.1-1.8-.4-4.2 1.4-5.3 1.8-1.1 4.2-.4 5.3 1.4l5.6 9.7c1.1 1.9.4 4.3-1.4 5.3Z"/></symbol><symbol xmlns="http://www.w3.org/2000/svg" id="more-links"><path fill-rule="evenodd" d="M1.295.303C.634.303.097.84.097 1.499a1.2 1.2 0 0 0 1.198 1.198 1.2 1.2 0 0 0 1.198-1.198C2.493.84 1.956.303 1.295.303Zm4.479 0c-.661 0-1.198.537-1.198 1.196a1.2 1.2 0 0 0 1.198 1.198 1.2 1.2 0 0 0 1.198-1.198C6.972.84 6.435.303 5.774.303Zm3.281 1.196a1.198 1.198 0 0 1 2.396 0 1.2 1.2 0 0 1-1.198 1.198 1.2 1.2 0 0 1-1.198-1.198Z" clip-rule="evenodd"/></symbol><symbol xmlns="http://www.w3.org/2000/svg" id="moon-icon"><path d="m3.451 17.5.15-.735a.75.75 0 0 0-.77 1.158l.62-.423Zm8-14 .02-.75a.75.75 0 0 0-.554 1.277l.534-.527Zm9.75 9c0-5.314-4.343-9.608-9.73-9.75l-.04 1.5c4.614.121 8.27 3.787 8.27 8.25h1.5Zm-9.75 9.75c5.541 0 9.75-4.372 9.75-9.75h-1.5c0 4.565-3.553 8.25-8.25 8.25v1.5Zm-8.62-4.327C4.645 20.579 8 22.25 11.452 22.25v-1.5c-3.006 0-5.874-1.465-7.38-3.673l-1.24.846Zm.47.312c4.342.883 8.062-1.378 9.913-4.595 1.854-3.221 1.89-7.506-1.23-10.667l-1.067 1.054c2.564 2.597 2.576 6.12.997 8.865-1.581 2.748-4.702 4.608-8.313 3.873l-.3 1.47Z"/></symbol><symbol xmlns="http://www.w3.org/2000/svg" id="sun-icon"><path d="M3 11.25a.75.75 0 0 0 0 1.5v-1.5Zm2 1.5a.75.75 0 0 0 0-1.5v1.5Zm-.53 5.72a.75.75 0 1 0 1.06 1.06l-1.06-1.06Zm3.06-.94a.75.75 0 1 0-1.06-1.06l1.06 1.06ZM12.75 19a.75.75 0 0 0-1.5 0h1.5Zm-1.5 2a.75.75 0 0 0 1.5 0h-1.5Zm6.28-4.53a.75.75 0 1 0-1.06 1.06l1.06-1.06Zm.94 3.06a.75.75 0 1 0 1.06-1.06l-1.06 1.06ZM5.53 4.47a.75.75 0 0 0-1.06 1.06l1.06-1.06Zm.94 3.06a.75.75 0 0 0 1.06-1.06L6.47 7.53ZM19 11.25a.75.75 0 0 0 0 1.5v-1.5Zm2 1.5a.75.75 0 0 0 0-1.5v1.5Zm-4.53-6.28a.75.75 0 1 0 1.06 1.06l-1.06-1.06Zm3.06-.94a.75.75 0 1 0-1.06-1.06l1.06 1.06ZM12.75 3a.75.75 0 0 0-1.5 0h1.5Zm-1.5 2a.75.75 0 0 0 1.5 0h-1.5Zm3 7A2.25 2.25 0 0 1 12 14.25v1.5A3.75 3.75 0 0 0 15.75 12h-1.5ZM12 14.25A2.25 2.25 0 0 1 9.75 12h-1.5A3.75 3.75 0 0 0 12 15.75v-1.5ZM9.75 12A2.25 2.25 0 0 1 12 9.75v-1.5A3.75 3.75 0 0 0 8.25 12h1.5ZM12 9.75A2.25 2.25 0 0 1 14.25 12h1.5A3.75 3.75 0 0 0 12 8.25v1.5Zm-9 3h2v-1.5H3v1.5Zm2.53 6.78 2-2-1.06-1.06-2 2 1.06 1.06Zm5.72-.53v2h1.5v-2h-1.5Zm5.22-1.47 2 2 1.06-1.06-2-2-1.06 1.06Zm-12-12 2 2 1.06-1.06-2-2-1.06 1.06ZM19 12.75h2v-1.5h-2v1.5Zm-1.47-5.22 2-2-1.06-1.06-2 2 1.06 1.06ZM11.25 3v2h1.5V3h-1.5Z"/></symbol><symbol xmlns="http://www.w3.org/2000/svg" id="instagram-icon"><path d="M12 7a5 5 0 1 0 0 10 5 5 0 0 0 0-10Zm0 8a3 3 0 1 1 0-5.999A3 3 0 0 1 12 15Zm5-9a1 1 0 1 0 0 2 1 1 0 0 0 0-2Zm4.94 2.24a7.51 7.51 0 0 0-.48-2.5 5.56 5.56 0 0 0-3.2-3.2 7.51 7.51 0 0 0-2.5-.48C14.79 2 14.47 2 12 2c-2.47 0-2.79 0-3.76.06a7.51 7.51 0 0 0-2.5.48 5.56 5.56 0 0 0-3.2 3.2 7.51 7.51 0 0 0-.48 2.5C2 9.22 2 9.54 2 12s0 2.78.06 3.76c.017.855.179 1.7.48 2.5a5.56 5.56 0 0 0 3.2 3.2 7.51 7.51 0 0 0 2.5.48c1 0 1.29.06 3.76.06 2.47 0 2.79 0 3.76-.06a7.51 7.51 0 0 0 2.5-.48 5.56 5.56 0 0 0 3.2-3.2 7.51 7.51 0 0 0 .48-2.5c0-1 .06-1.3.06-3.76s0-2.78-.06-3.76Zm-2 7.43a6 6 0 0 1-.35 1.86 3.4 3.4 0 0 1-.82 1.25 3.26 3.26 0 0 1-1.25.81 5.75 5.75 0 0 1-1.87.36c-.94 0-1.23.05-3.66.05H8.34a6 6 0 0 1-1.87-.35 3.4 3.4 0 0 1-1.25-.82 3.26 3.26 0 0 1-.81-1.25 5.74 5.74 0 0 1-.36-1.86V8.38a5.86 5.86 0 0 1 .36-1.87 3.3 3.3 0 0 1 .81-1.24 3.26 3.26 0 0 1 1.25-.81 5.75 5.75 0 0 1 1.87-.36C9.28 4 9.57 4 12 4h3.66a5.87 5.87 0 0 1 1.88.36 3.3 3.3 0 0 1 1.24.81c.363.349.64.776.81 1.25A5.74 5.74 0 0 1 20 8.33c0 1 .05 1.25.05 3.67S20 14.71 20 15.67h-.06Z"/></symbol><symbol xmlns="http://www.w3.org/2000/svg" id="github-icon"><path d="M10.07 20.503a1 1 0 0 0-1.18-.983c-1.31.24-2.963.276-3.402-.959a5.707 5.707 0 0 0-1.837-2.415 1.204 1.204 0 0 1-.167-.109 1 1 0 0 0-.93-.645h-.005a1 1 0 0 0-1 .995c-.004.815.81 1.338 1.141 1.514.39.392.704.853.924 1.36.365 1.023 1.423 2.576 4.466 2.376l.003.098.004.268a1 1 0 0 0 2 0l-.005-.318c-.005-.19-.012-.464-.012-1.182ZM20.737 5.377a5.64 5.64 0 0 0 .09-.42 6.279 6.279 0 0 0-.408-3.293 1.003 1.003 0 0 0-.615-.58c-.356-.12-1.67-.357-4.184 1.25a13.87 13.87 0 0 0-6.354 0C6.762.75 5.455.966 5.102 1.079a.997.997 0 0 0-.631.584 6.3 6.3 0 0 0-.404 3.357c.025.127.051.246.079.354a6.27 6.27 0 0 0-1.256 3.83c-.003.307.012.615.043.921.334 4.602 3.334 5.984 5.424 6.459a4.592 4.592 0 0 0-.118.4 1 1 0 0 0 1.942.479c.064-.333.227-.64.468-.878a1 1 0 0 0-.546-1.745c-3.454-.395-4.954-1.802-5.18-4.899a6.612 6.612 0 0 1-.033-.738A4.258 4.258 0 0 1 6.005 6.26a1 1 0 0 0 .188-1.025 3.388 3.388 0 0 1-.155-.555 4.094 4.094 0 0 1 .079-1.616c.869.246 1.687.645 2.415 1.18a1.009 1.009 0 0 0 .827.133 11.777 11.777 0 0 1 6.173.001 1.006 1.006 0 0 0 .83-.138 7.571 7.571 0 0 1 2.406-1.19c.133.515.162 1.051.087 1.578a3.207 3.207 0 0 1-.169.607 1 1 0 0 0 .189 1.025c.077.087.154.18.223.268.606.758.926 1.706.902 2.676.002.26-.01.52-.038.777-.22 3.056-1.725 4.464-5.195 4.86a1 1 0 0 0-.546 1.746c.249.245.412.563.466.908.068.268.1.543.093.82v2.334c-.01.647-.01 1.132-.01 1.355a1 1 0 0 0 2 0c0-.217 0-.692.01-1.34v-2.35a4.883 4.883 0 0 0-.155-1.311c-.032-.14-.07-.28-.116-.416a6.512 6.512 0 0 0 5.445-6.424A8.7 8.7 0 0 0 22 9.203a6.13 6.13 0 0 0-1.263-3.826Z"/></symbol><symbol xmlns="http://www.w3.org/2000/svg" id="twitter-icon"><path d="M22.991 3.95a1 1 0 0 0-1.51-.86 7.48 7.48 0 0 1-1.873.794 5.153 5.153 0 0 0-3.375-1.242 5.232 5.232 0 0 0-5.223 5.063 11.032 11.032 0 0 1-6.814-3.924 1.012 1.012 0 0 0-.857-.365.998.998 0 0 0-.785.5 5.276 5.276 0 0 0-.242 4.769l-.002.002a1.041 1.041 0 0 0-.496.888c-.001.147.007.294.027.44a5.185 5.185 0 0 0 1.568 3.312.999.999 0 0 0-.066.77 5.204 5.204 0 0 0 2.362 2.921 7.465 7.465 0 0 1-3.59.449A1 1 0 0 0 1.45 19.3a12.942 12.942 0 0 0 7.01 2.061 12.788 12.788 0 0 0 12.465-9.363c.353-1.183.533-2.412.535-3.646l-.001-.2a5.77 5.77 0 0 0 1.532-4.202Zm-3.306 3.212a.995.995 0 0 0-.234.702c.01.165.009.331.009.488a10.825 10.825 0 0 1-.454 3.08 10.685 10.685 0 0 1-10.546 7.93c-.86 0-1.715-.101-2.55-.301a9.48 9.48 0 0 0 2.942-1.564 1 1 0 0 0-.602-1.786 3.208 3.208 0 0 1-2.214-.935c.15-.028.298-.063.445-.105a1 1 0 0 0-.08-1.944 3.197 3.197 0 0 1-2.25-1.725c.181.025.363.04.545.046a1.022 1.022 0 0 0 .984-.696 1 1 0 0 0-.4-1.137A3.196 3.196 0 0 1 3.86 6.344a13.014 13.014 0 0 0 8.21 3.48 1.02 1.02 0 0 0 .817-.36 1 1 0 0 0 .206-.867 3.159 3.159 0 0 1-.087-.729 3.23 3.23 0 0 1 4.506-2.962c.403.176.766.433 1.065.756a.993.993 0 0 0 .921.298 9.27 9.27 0 0 0 1.212-.322 6.679 6.679 0 0 1-1.026 1.524Z"/></symbol><symbol xmlns="http://www.w3.org/2000/svg" id="linkedin-icon"><path d="M17.5 8.999c-.895 0-1.777.221-2.565.645A1 1 0 0 0 14 8.999h-4a1 1 0 0 0-1 1v12a1 1 0 0 0 1 1h4a.998.998 0 0 0 1-1v-5.5a1 1 0 0 1 2 0v5.5a.998.998 0 0 0 1 1h4a.998.998 0 0 0 1-1v-7.5a5.507 5.507 0 0 0-5.5-5.5Zm3.5 12h-2v-4.5a3 3 0 0 0-6 0v4.5h-2v-10h2v.703a1 1 0 0 0 1.781.625A3.482 3.482 0 0 1 21 14.5v6.5Zm-14-12H3a1 1 0 0 0-1 1v12a1 1 0 0 0 1 1h4a.998.998 0 0 0 1-1v-12a1 1 0 0 0-1-1Zm-1 12H4v-10h2v10ZM5.015 1.542a3.233 3.233 0 1 0-.057 6.457h.028a3.234 3.234 0 1 0 .029-6.457Zm-.029 4.457h-.028a1.222 1.222 0 0 1-1.37-1.228c0-.747.56-1.229 1.427-1.229A1.233 1.233 0 0 1 6.41 4.771c0 .746-.56 1.228-1.425 1.228Z"/></symbol><symbol xmlns="http://www.w3.org/2000/svg" id="lines-vector" fill="none"><path stroke-dasharray="0.3 0.3" stroke-linecap="round" stroke-linejoin="round" stroke-miterlimit="10" stroke-width="2" d="M2.803 51.87 262.09-134.416M1.177 70.609l275.651-198.383M5.825 84.703l283.5-204.166M13.877 96.297l289.856-208.87M19.326 109.805l298.981-215.611M26.389 122.124 334-99.862M33.37 134.507 345.142-90.566M40.363 146.873 359.61-83.717M47.696 158.995 370.682-74.363M53.722 172.078 379.289-63.18M61.069 184.182 389.465-53.166M69.098 195.79 399.43-42.996M75.267 208.75 393.901-21.381" opacity=".7"/></symbol><symbol xmlns="http://www.w3.org/2000/svg" id="ux-service"><path d="m4.5 5 .53-.53A.75.75 0 0 0 3.75 5h.75Zm0 11h-.75c0 .414.336.75.75.75V16Zm16 0v.75a.75.75 0 0 0 .75-.75h-.75Zm0-11h.75a.75.75 0 0 0-1.28-.53l.53.53Zm-4 4-.53.53a.75.75 0 0 0 1.06 0L16.5 9Zm-8 0-.53.53a.75.75 0 0 0 1.06 0L8.5 9Zm4-4 .53-.53a.75.75 0 0 0-1.06 0l.53.53Zm-8 13.25a.75.75 0 0 0 0 1.5v-1.5Zm16 1.5a.75.75 0 0 0 0-1.5v1.5ZM3.75 5v11h1.5V5h-1.5Zm.75 11.75h16v-1.5h-16v1.5ZM21.25 16V5h-1.5v11h1.5ZM19.97 4.47l-4 4 1.06 1.06 4-4-1.06-1.06Zm-16 1.06 4 4 1.06-1.06-4-4-1.06 1.06Zm5.06 4 4-4-1.06-1.06-4 4 1.06 1.06Zm2.94-4 4 4 1.06-1.06-4-4-1.06 1.06ZM4.5 19.75h16v-1.5h-16v1.5Z"/></symbol><symbol xmlns="http://www.w3.org/2000/svg" id="app-development"><path fill-rule="evenodd" d="M13.621 2.77c-.67-.35-1.58-.355-2.257-.006C9 4.338 6.5 5.838 4.36 7.342c-.32.263-.545.646-.541 1.097.003.448.234.826.551 1.085C6.5 10.838 9 12.338 11.312 14.06c.671.35 1.58.356 2.257.007C16 12.338 17 11.838 20.575 9.489c.319-.263.545-.646.541-1.097-.004-.448-.235-.826-.551-1.085C18.5 5.838 16 4.338 13.62 2.771Zm-1.568 1.327c.24-.124.633-.122.874.004C15 5.338 17 6.838 19.534 8.403c-2.034 1.435-4.034 2.935-6.653 4.33-.24.125-.633.123-.875-.003C9.616 11.338 7.5 9.838 5.4 8.428 7.5 6.838 9 5.838 12.053 4.098Z" clip-rule="evenodd"/><path d="M21.664 12.108a.75.75 0 0 1-.24 1.034l-6.106 3.813c-.818.383-1.824.883-2.818.883s-2-.5-2.884-.883l-6.04-3.77a.75.75 0 1 1 .793-1.272l6.04 3.77c.545.34 1.318.655 2.091.655.773 0 1.48-.316 2.023-.656l6.107-3.813a.75.75 0 0 1 1.034.24Z"/><path d="M21.664 15.863a.75.75 0 0 1-.24 1.034L16.137 20.2c-1.636.8-2.38 1.295-3.67 1.295-1.288 0-2.966-.995-3.669-1.295l-5.222-3.26a.75.75 0 1 1 .795-1.272l5.221 3.26c.773.482 1.807.91 2.876.91 1.068 0 2.102-.428 2.874-.91l5.29-3.304a.75.75 0 0 1 1.033.24Z"/></symbol><symbol xmlns="http://www.w3.org/2000/svg" id="web-development"><path d="M20.75 12a8.25 8.25 0 0 1-8.25 8.25v1.5c5.385 0 9.75-4.365 9.75-9.75h-1.5Zm-8.25 8.25A8.25 8.25 0 0 1 4.25 12h-1.5c0 5.385 4.365 9.75 9.75 9.75v-1.5ZM4.25 12a8.25 8.25 0 0 1 8.25-8.25v-1.5c-5.385 0-9.75 4.365-9.75 9.75h1.5Zm8.25-8.25A8.25 8.25 0 0 1 20.75 12h1.5c0-5.385-4.365-9.75-9.75-9.75v1.5Zm0-.75a90.324 90.324 0 0 1-.452.599 1.19 1.19 0 0 1 .028.022 7.424 7.424 0 0 1 .518.472c.347.346.814.87 1.282 1.573.935 1.402 1.874 3.51 1.874 6.334h1.5c0-3.176-1.06-5.568-2.126-7.166a11.876 11.876 0 0 0-1.469-1.802 8.861 8.861 0 0 0-.642-.583 3.016 3.016 0 0 0-.056-.043l-.004-.004-.002-.001S12.95 2.4 12.5 3Zm3.25 9c0 2.824-.94 4.932-1.874 6.334a10.387 10.387 0 0 1-1.281 1.573 7.422 7.422 0 0 1-.546.494s.001-.001.451.599l.45.6.001-.001.002-.001.004-.004a.934.934 0 0 0 .056-.044 8.858 8.858 0 0 0 .642-.583 11.87 11.87 0 0 0 1.469-1.801c1.065-1.598 2.126-3.99 2.126-7.166h-1.5Zm-3.25 9 .45-.6.002.001a.582.582 0 0 1-.028-.022 7.422 7.422 0 0 1-.518-.472c-.347-.346-.814-.87-1.282-1.573-.935-1.402-1.874-3.51-1.874-6.334h-1.5c0 3.176 1.06 5.568 2.126 7.166a11.872 11.872 0 0 0 1.469 1.802 8.858 8.858 0 0 0 .684.616l.014.01.004.004.002.001s.001.001.451-.599Zm-3.25-9c0-2.824.94-4.932 1.874-6.334a10.38 10.38 0 0 1 1.281-1.573 7.424 7.424 0 0 1 .546-.493L12.5 3l-.45-.6-.001.001-.002.001-.004.004a.97.97 0 0 0-.056.043 8.861 8.861 0 0 0-.642.583 11.879 11.879 0 0 0-1.469 1.802C8.811 6.432 7.75 8.824 7.75 12h1.5Zm12.25-.75h-18v1.5h18v-1.5Z"/></symbol><symbol xmlns="http://www.w3.org/2000/svg" id="arrow-right"><path d="M9.47 16.47a.75.75 0 1 0 1.06 1.06l-1.06-1.06ZM15 12l.53.53a.75.75 0 0 0 0-1.06L15 12Zm-4.47-5.53a.75.75 0 1 0-1.06 1.06l1.06-1.06Zm0 11.06 5-5-1.06-1.06-5 5 1.06 1.06Zm5-6.06-5-5-1.06 1.06 5 5 1.06-1.06Z"/></symbol><symbol xmlns="http://www.w3.org/2000/svg" id="arrow-left"><path d="M14.53 7.53a.75.75 0 0 0-1.06-1.06l1.06 1.06ZM9 12l-.53-.53a.75.75 0 0 0 0 1.06L9 12Zm4.47 5.53a.75.75 0 1 0 1.06-1.06l-1.06 1.06Zm0-11.06-5 5 1.06 1.06 5-5-1.06-1.06Zm-5 6.06 5 5 1.06-1.06-5-5-1.06 1.06Z"/></symbol><symbol xmlns="http://www.w3.org/2000/svg" id="link"><path d="M15 15.25a.75.75 0 0 0 0 1.5v-1.5Zm0-8a.75.75 0 0 0 0 1.5v-1.5Zm-7 4a.75.75 0 0 0 0 1.5v-1.5Zm8 1.5a.75.75 0 0 0 0-1.5v1.5Zm-7-4a.75.75 0 0 0 0-1.5v1.5Zm0 8a.75.75 0 0 0 0-1.5v1.5Zm8-8A3.25 3.25 0 0 1 20.25 12h1.5A4.75 4.75 0 0 0 17 7.25v1.5ZM20.25 12A3.25 3.25 0 0 1 17 15.25v1.5A4.75 4.75 0 0 0 21.75 12h-1.5ZM17 15.25h-2v1.5h2v-1.5Zm0-8h-2v1.5h2v-1.5Zm-9 5.5h8v-1.5H8v1.5Zm-1 2.5A3.25 3.25 0 0 1 3.75 12h-1.5A4.75 4.75 0 0 0 7 16.75v-1.5ZM3.75 12A3.25 3.25 0 0 1 7 8.75v-1.5A4.75 4.75 0 0 0 2.25 12h1.5ZM7 8.75h2v-1.5H7v1.5Zm0 8h2v-1.5H7v1.5Z"/></symbol><symbol xmlns="http://www.w3.org/2000/svg" id="quote-icon"><path d="m16.5 14 .53-.53a.75.75 0 0 0-.53-.22V14Zm3.5 3.5-.53.53a.75.75 0 0 0 1.28-.53H20ZM6.5 14l.53-.53a.75.75 0 0 0-.53-.22V14Zm3.5 3.5-.53.53a.75.75 0 0 0 1.28-.53H10Zm6.5-4.25a2.75 2.75 0 0 1-2.75-2.75h-1.5a4.25 4.25 0 0 0 4.25 4.25v-1.5Zm-2.75-2.75a2.75 2.75 0 0 1 2.75-2.75v-1.5a4.25 4.25 0 0 0-4.25 4.25h1.5Zm2.75-2.75a2.75 2.75 0 0 1 2.75 2.75h1.5a4.25 4.25 0 0 0-4.25-4.25v1.5Zm-.53 6.78 3.5 3.5 1.06-1.06-3.5-3.5-1.06 1.06Zm4.78 2.97v-7h-1.5v7h1.5ZM6.5 13.25a2.75 2.75 0 0 1-2.75-2.75h-1.5a4.25 4.25 0 0 0 4.25 4.25v-1.5ZM3.75 10.5A2.75 2.75 0 0 1 6.5 7.75v-1.5a4.25 4.25 0 0 0-4.25 4.25h1.5ZM6.5 7.75a2.75 2.75 0 0 1 2.75 2.75h1.5A4.25 4.25 0 0 0 6.5 6.25v1.5Zm-.53 6.78 3.5 3.5 1.06-1.06-3.5-3.5-1.06 1.06Zm4.78 2.97v-7h-1.5v7h1.5Z"/></symbol><symbol xmlns="http://www.w3.org/2000/svg" id="address-icon"><path d="M11.25 21a.75.75 0 0 0 1.5 0h-1.5Zm0-8v8h1.5v-8h-1.5Zm5-5A4.25 4.25 0 0 1 12 12.25v1.5A5.75 5.75 0 0 0 17.75 8h-1.5ZM12 12.25A4.25 4.25 0 0 1 7.75 8h-1.5A5.75 5.75 0 0 0 12 13.75v-1.5ZM7.75 8A4.25 4.25 0 0 1 12 3.75v-1.5A5.75 5.75 0 0 0 6.25 8h1.5ZM12 3.75A4.25 4.25 0 0 1 16.25 8h1.5A5.75 5.75 0 0 0 12 2.25v1.5Z"/></symbol><symbol xmlns="http://www.w3.org/2000/svg" id="phone-icon"><path d="m21 16.477-.75-.019v.019H21Zm0 2.71h-.75v.002l.75-.003ZM4.808 3v-.75V3Zm2.715 0v.75h.008L7.523 3Zm1.198.437-.488.569.488-.57Zm-.31 6.708-.53-.531a.75.75 0 0 0-.122.902l.651-.371Zm5.43 5.42-.37.652a.75.75 0 0 0 .9-.122l-.53-.53Zm6.73-.301.572-.485-.572.485Zm-10.528-7.16.733.157-.733-.157Zm5.842 5.831.156.734-.156-.734Zm3.141 7.058.068-.747a.733.733 0 0 0-.068-.003v.75ZM3.008 4.969h.75a.754.754 0 0 0-.003-.067l-.747.067Zm11.637.795a.75.75 0 1 0-.288 1.472l.288-1.472Zm2.12 3.88a.75.75 0 1 0 1.472-.288l-1.472.288Zm-1.681-7.39a.75.75 0 1 0-.166 1.491l.166-1.49ZM19 5l.53-.53L19 5Zm1.255 4.084a.75.75 0 1 0 1.49-.168l-1.49.168Zm-.005 7.393v2.71h1.5v-2.71h-1.5ZM4.808 3.75h2.715v-1.5H4.808v1.5Zm2.723 0c.257-.002.507.089.702.256l.977-1.138a2.562 2.562 0 0 0-1.694-.618l.015 1.5Zm.228 6.766a15.217 15.217 0 0 0 5.711 5.7l.74-1.304a13.717 13.717 0 0 1-5.148-5.138l-1.303.742Zm12.24 5.233c.168.198.257.45.25.709l1.5.037a2.555 2.555 0 0 0-.606-1.716l-1.144.97ZM8.233 4.006c.122.105.284.323.45.672.162.338.305.746.416 1.175.233.894.29 1.72.21 2.095l1.467.313c.155-.722.025-1.823-.225-2.786a8.154 8.154 0 0 0-.514-1.444c-.206-.43-.476-.862-.827-1.163l-.977 1.138Zm7.808 10.663c.377-.08 1.209-.022 2.107.211a6.67 6.67 0 0 1 1.18.417c.35.168.567.33.671.452l1.144-.97c-.301-.355-.735-.627-1.167-.834a8.151 8.151 0 0 0-1.45-.517c-.967-.251-2.074-.38-2.797-.227l.312 1.468Zm-1.67 1.426c.161-.161.324-.341.469-.5.151-.165.292-.315.435-.45.294-.277.536-.428.766-.476L15.73 13.2c-.628.134-1.114.505-1.482.852-.187.176-.36.362-.513.528-.16.174-.292.321-.423.453l1.06 1.061ZM9.308 7.948c-.048.228-.2.47-.476.763a8.648 8.648 0 0 1-.452.435c-.158.144-.339.307-.5.468l1.06 1.062c.13-.132.278-.264.452-.423.167-.152.353-.325.53-.512.347-.367.72-.852.853-1.48L9.31 7.948Zm9.717 12.295c-8.61.007-15.276-6.72-15.269-15.273l-1.5-.001c-.007 9.378 7.327 16.781 16.77 16.774l-.001-1.5Zm1.224-1.053c.002.595-.552 1.11-1.156 1.056l-.135 1.494c1.488.134 2.797-1.08 2.79-2.557l-1.5.006ZM3.754 4.901C3.7 4.305 4.21 3.75 4.81 3.75l-.002-1.5c-1.47.001-2.681 1.303-2.547 2.787l1.494-.135Zm10.602 2.334c.632.123 1.214.395 1.614.794l1.06-1.06c-.662-.663-1.543-1.042-2.386-1.206l-.288 1.472Zm1.614.794c.4.4.67.982.794 1.614l1.472-.288c-.164-.843-.543-1.724-1.206-2.386l-1.06 1.06Zm-1.053-4.285c1.339.15 2.565.799 3.553 1.786l1.06-1.062c-1.192-1.19-2.723-2.023-4.447-2.214l-.166 1.49Zm3.553 1.786c.987.985 1.634 2.213 1.785 3.553l1.49-.168c-.193-1.722-1.021-3.254-2.215-4.447l-1.06 1.062Z"/></symbol><symbol xmlns="http://www.w3.org/2000/svg" id="email-icon"><path d="m10.586 12.586.53-.53-.53.53Zm2.828 0-.53-.53.53.53ZM4 5.75h16v-1.5H4v1.5ZM20.25 6v12h1.5V6h-1.5ZM20 18.25H4v1.5h16v-1.5ZM3.75 18V6h-1.5v12h1.5Zm.25.25a.25.25 0 0 1-.25-.25h-1.5c0 .966.784 1.75 1.75 1.75v-1.5ZM20.25 18a.25.25 0 0 1-.25.25v1.5A1.75 1.75 0 0 0 21.75 18h-1.5ZM4 4.25c-.483 0-.922.197-1.237.513l1.06 1.06A.247.247 0 0 1 4 5.75v-1.5Zm-1.237.513A1.747 1.747 0 0 0 2.25 6h1.5c0-.07.027-.13.073-.177l-1.06-1.06ZM20 5.75c.07 0 .13.027.177.073l1.06-1.06A1.747 1.747 0 0 0 20 4.25v1.5Zm.177.073A.247.247 0 0 1 20.25 6h1.5c0-.483-.197-.922-.513-1.237l-1.06 1.06Zm-10.121 7.293a2.75 2.75 0 0 0 3.889 0l-1.061-1.06a1.25 1.25 0 0 1-1.768 0l-1.06 1.06ZM2.763 5.823l7.293 7.293 1.06-1.06-7.293-7.293-1.06 1.06Zm11.181 7.293 7.293-7.293-1.06-1.06-7.293 7.292 1.06 1.061Z"/></symbol><symbol xmlns="http://www.w3.org/2000/svg" id="menu"><path d="M4 16.25a.75.75 0 0 0 0 1.5v-1.5Zm16 1.5a.75.75 0 0 0 0-1.5v1.5Zm-16-6.5a.75.75 0 0 0 0 1.5v-1.5Zm16 1.5a.75.75 0 0 0 0-1.5v1.5ZM4 6.25a.75.75 0 0 0 0 1.5v-1.5Zm16 1.5a.75.75 0 0 0 0-1.5v1.5Zm-16 10h16v-1.5H4v1.5Zm0-5h16v-1.5H4v1.5Zm0-5h16v-1.5H4v1.5Z"/></symbol></defs></svg>